<mxfile host="app.diagrams.net" modified="2023-10-03T08:30:27.154Z" agent="Mozilla/5.0 (Windows NT 10.0; Win64; x64) AppleWebKit/537.36 (KHTML, like Gecko) Chrome/117.0.0.0 Safari/537.36" etag="9Ys7FrGWmxaAH148jTH2" version="22.0.1" type="github">
  <diagram name="Halaman-1" id="sekyxseOPXIWuS-vj5T8">
    <mxGraphModel dx="1434" dy="790" grid="1" gridSize="10" guides="1" tooltips="1" connect="1" arrows="1" fold="1" page="1" pageScale="1" pageWidth="827" pageHeight="1169" math="0" shadow="0">
      <root>
        <mxCell id="0" />
        <mxCell id="1" parent="0" />
        <mxCell id="JwKYL6n0yKR_yus2vG3k-1" value="" style="rounded=0;whiteSpace=wrap;html=1;" vertex="1" parent="1">
          <mxGeometry x="160" y="160" width="480" height="720" as="geometry" />
        </mxCell>
        <mxCell id="JwKYL6n0yKR_yus2vG3k-2" value="" style="rounded=0;whiteSpace=wrap;html=1;" vertex="1" parent="1">
          <mxGeometry x="160" y="160" width="480" height="100" as="geometry" />
        </mxCell>
        <mxCell id="JwKYL6n0yKR_yus2vG3k-3" value="&lt;b style=&quot;font-size: 23px;&quot;&gt;FLOW CHART&amp;nbsp;&lt;br&gt;BUKU KUNJUNGAN PERPUSTAKAAN DIGITAL&lt;br&gt;&lt;/b&gt;" style="text;html=1;strokeColor=none;fillColor=none;align=center;verticalAlign=middle;whiteSpace=wrap;rounded=0;" vertex="1" parent="1">
          <mxGeometry x="230" y="192.5" width="340" height="35" as="geometry" />
        </mxCell>
        <mxCell id="JwKYL6n0yKR_yus2vG3k-20" style="edgeStyle=orthogonalEdgeStyle;rounded=0;orthogonalLoop=1;jettySize=auto;html=1;entryX=0;entryY=0.5;entryDx=0;entryDy=0;" edge="1" parent="1" source="JwKYL6n0yKR_yus2vG3k-5" target="JwKYL6n0yKR_yus2vG3k-17">
          <mxGeometry relative="1" as="geometry" />
        </mxCell>
        <mxCell id="JwKYL6n0yKR_yus2vG3k-21" style="edgeStyle=orthogonalEdgeStyle;rounded=0;orthogonalLoop=1;jettySize=auto;html=1;entryX=0;entryY=0.5;entryDx=0;entryDy=0;" edge="1" parent="1" source="JwKYL6n0yKR_yus2vG3k-5" target="JwKYL6n0yKR_yus2vG3k-18">
          <mxGeometry relative="1" as="geometry" />
        </mxCell>
        <mxCell id="JwKYL6n0yKR_yus2vG3k-22" style="edgeStyle=orthogonalEdgeStyle;rounded=0;orthogonalLoop=1;jettySize=auto;html=1;entryX=0;entryY=0.5;entryDx=0;entryDy=0;" edge="1" parent="1" source="JwKYL6n0yKR_yus2vG3k-5" target="JwKYL6n0yKR_yus2vG3k-13">
          <mxGeometry relative="1" as="geometry" />
        </mxCell>
        <mxCell id="JwKYL6n0yKR_yus2vG3k-23" style="edgeStyle=orthogonalEdgeStyle;rounded=0;orthogonalLoop=1;jettySize=auto;html=1;entryX=0;entryY=0.5;entryDx=0;entryDy=0;" edge="1" parent="1" source="JwKYL6n0yKR_yus2vG3k-5" target="JwKYL6n0yKR_yus2vG3k-16">
          <mxGeometry relative="1" as="geometry" />
        </mxCell>
        <mxCell id="JwKYL6n0yKR_yus2vG3k-5" value="&lt;font style=&quot;font-size: 15px;&quot;&gt;PUSTAKAWAN&lt;/font&gt;" style="shape=umlActor;verticalLabelPosition=bottom;verticalAlign=top;html=1;outlineConnect=0;" vertex="1" parent="1">
          <mxGeometry x="10" y="620" width="110" height="200" as="geometry" />
        </mxCell>
        <mxCell id="JwKYL6n0yKR_yus2vG3k-14" style="edgeStyle=orthogonalEdgeStyle;rounded=0;orthogonalLoop=1;jettySize=auto;html=1;" edge="1" parent="1" source="JwKYL6n0yKR_yus2vG3k-6" target="JwKYL6n0yKR_yus2vG3k-13">
          <mxGeometry relative="1" as="geometry" />
        </mxCell>
        <mxCell id="JwKYL6n0yKR_yus2vG3k-19" style="edgeStyle=orthogonalEdgeStyle;rounded=0;orthogonalLoop=1;jettySize=auto;html=1;" edge="1" parent="1" source="JwKYL6n0yKR_yus2vG3k-6" target="JwKYL6n0yKR_yus2vG3k-16">
          <mxGeometry relative="1" as="geometry" />
        </mxCell>
        <mxCell id="JwKYL6n0yKR_yus2vG3k-6" value="&lt;font style=&quot;font-size: 15px;&quot;&gt;PENGUNJUNG&lt;/font&gt;" style="shape=umlActor;verticalLabelPosition=bottom;verticalAlign=top;html=1;outlineConnect=0;" vertex="1" parent="1">
          <mxGeometry x="670" y="340" width="90" height="170" as="geometry" />
        </mxCell>
        <mxCell id="JwKYL6n0yKR_yus2vG3k-13" value="&lt;font style=&quot;font-size: 14px;&quot;&gt;MENGISI BUKU PENGUNJUNG&lt;/font&gt;" style="ellipse;whiteSpace=wrap;html=1;" vertex="1" parent="1">
          <mxGeometry x="290" y="295" width="200" height="120" as="geometry" />
        </mxCell>
        <mxCell id="JwKYL6n0yKR_yus2vG3k-16" value="&lt;span style=&quot;font-size: 14px;&quot;&gt;MELIHAT RIWAYAT BUKU KUNJUNGAN&lt;/span&gt;" style="ellipse;whiteSpace=wrap;html=1;" vertex="1" parent="1">
          <mxGeometry x="290" y="440" width="200" height="120" as="geometry" />
        </mxCell>
        <mxCell id="JwKYL6n0yKR_yus2vG3k-17" value="&lt;span style=&quot;font-size: 14px;&quot;&gt;REKAP BUKU KUNJUNGAN&lt;/span&gt;" style="ellipse;whiteSpace=wrap;html=1;" vertex="1" parent="1">
          <mxGeometry x="290" y="585" width="200" height="120" as="geometry" />
        </mxCell>
        <mxCell id="JwKYL6n0yKR_yus2vG3k-18" value="&lt;span style=&quot;font-size: 14px;&quot;&gt;LAPORAN STATISTIK&lt;/span&gt;" style="ellipse;whiteSpace=wrap;html=1;" vertex="1" parent="1">
          <mxGeometry x="290" y="730" width="200" height="120" as="geometry" />
        </mxCell>
      </root>
    </mxGraphModel>
  </diagram>
</mxfile>
